<svg xmlns="http://www.w3.org/2000/svg" viewBox="0 0 24 24" fill="none">
  <path d="M12 2C8.13 2 5 5.13 5 9C5 14.25 12 22 12 22C12 22 19 14.25 19 9C19 5.13 15.87 2 12 2Z" fill="#007BFF"/>
  
  <path transform="translate(0, -2)" d="M14.8333 9H13.6667L12.9375 8.25H11.0625L10.3333 9H9.16667C8.525 9 8 9.525 8 10.1667V13.6667C8 14.3083 8.525 14.8333 9.16667 14.8333H14.8333C15.475 14.8333 16 14.3083 16 13.6667V10.1667C16 9.525 15.475 9 14.8333 9ZM12 13.9583C10.8708 13.9583 9.95833 13.0458 9.95833 11.9167C9.95833 10.7875 10.8708 9.875 12 9.875C13.1292 9.875 14.0417 10.7875 14.0417 11.9167C14.0417 13.0458 13.1292 13.9583 12 13.9583Z" fill="white"/>
</svg>